<?xml version="1.0" encoding="iso-8859-1"?>
<!-- Generator: Adobe Illustrator 19.0.0, SVG Export Plug-In . SVG Version: 6.00 Build 0)  -->
<svg version="1.1" id="Layer_1" xmlns="http://www.w3.org/2000/svg" xmlns:xlink="http://www.w3.org/1999/xlink" x="0px" y="0px"
	 viewBox="0 0 324.033 324.033" style="enable-background:new 0 0 324.033 324.033;" xml:space="preserve">
<g>
	<circle style="fill:#005CB9;" cx="162.016" cy="162.016" r="162.016"/>
	<path style="fill:#61B4E4;" d="M323.761,171.306c0.174-3.075,0.271-6.171,0.271-9.29c0-2.585-0.067-5.154-0.187-7.71H260.99
		c-0.969-22.248-5.735-44.094-14.064-64.79h60.007c-2.948-5.88-6.241-11.556-9.857-17h-57.929
		c-3.754-7.291-7.965-14.405-12.637-21.298C213.287,31.711,196.029,13.67,178.614,0.84C173.157,0.285,167.62,0,162.016,0
		c-5.604,0-11.141,0.285-16.598,0.84c-17.415,12.83-34.672,30.871-47.896,50.378c-4.672,6.893-8.883,14.006-12.637,21.298H26.956
		c-3.615,5.444-6.909,11.12-9.856,17h60.007c-8.329,20.696-13.095,42.542-14.064,64.79H0.187C0.067,156.862,0,159.431,0,162.016
		c0,3.119,0.097,6.215,0.271,9.29h62.771c0.969,22.248,5.735,44.094,14.064,64.79H17.895c3.032,5.886,6.415,11.561,10.119,17h56.872
		c3.754,7.291,7.965,14.405,12.637,21.298c12.597,18.582,28.853,35.83,45.419,48.515c6.257,0.734,12.62,1.124,19.075,1.124
		s12.817-0.389,19.075-1.124c16.566-12.685,32.823-29.933,45.419-48.515c4.672-6.893,8.883-14.006,12.637-21.298h56.872
		c3.704-5.439,7.087-11.114,10.119-17h-59.211c8.329-20.696,13.095-42.543,14.064-64.79L323.761,171.306L323.761,171.306z
		 M153.516,309.564c-11.263-8.582-27.26-23.079-41.922-44.709c-2.623-3.87-5.084-7.79-7.385-11.759h49.308L153.516,309.564
		L153.516,309.564z M153.516,236.096H95.484c-9.232-20.52-14.4-42.192-15.434-64.79h73.465v64.79H153.516z M153.516,154.306H80.051
		c1.033-22.598,6.201-44.271,15.434-64.79h58.032L153.516,154.306L153.516,154.306z M153.516,72.516h-49.308
		c2.301-3.969,4.762-7.889,7.385-11.759c14.663-21.63,30.66-36.127,41.922-44.709L153.516,72.516L153.516,72.516z M170.516,16.048
		c11.263,8.582,27.26,23.079,41.922,44.709c2.623,3.87,5.084,7.79,7.385,11.759h-49.308V16.048H170.516z M212.438,264.855
		c-14.663,21.63-30.66,36.127-41.922,44.709v-56.468h49.308C217.523,257.065,215.061,260.985,212.438,264.855z M228.548,236.096
		h-58.032v-64.79h73.465C242.948,193.904,237.78,215.577,228.548,236.096z M170.516,154.306v-64.79h58.032
		c9.232,20.52,14.4,42.192,15.434,64.79H170.516z"/>
</g>
<g>
</g>
<g>
</g>
<g>
</g>
<g>
</g>
<g>
</g>
<g>
</g>
<g>
</g>
<g>
</g>
<g>
</g>
<g>
</g>
<g>
</g>
<g>
</g>
<g>
</g>
<g>
</g>
<g>
</g>
</svg>
