<?xml version="1.0" encoding="iso-8859-1"?>
<!-- Generator: Adobe Illustrator 19.0.0, SVG Export Plug-In . SVG Version: 6.00 Build 0)  -->
<svg version="1.1" id="Layer_1" xmlns="http://www.w3.org/2000/svg" xmlns:xlink="http://www.w3.org/1999/xlink" x="0px" y="0px"
	 viewBox="0 0 512 512" style="enable-background:new 0 0 512 512;" xml:space="preserve">
<path style="fill:#E71B3F;" d="M255.999,512l-8.366-5.303C102.663,414.796,50.682,372.581,48.54,370.83l-5.733-4.689v-7.406
	c0-68.557,4.442-124.682,13.579-171.583c8.994-46.164,22.363-82.382,40.87-110.723C131.306,24.285,181.748,0,255.999,0
	s124.694,24.285,158.742,76.429c18.507,28.34,31.876,64.558,40.87,110.723c9.138,46.901,13.58,103.026,13.58,171.583v7.406
	l-5.733,4.689c-2.142,1.751-54.122,43.967-199.093,135.868L255.999,512"/>
<path style="fill:#FFAB00;" d="M255.999,428.947l-10.768-10.24c-2.75-2.615-67.361-64.999-67.361-147.301
	c0-35.243,12.208-67.328,35.305-92.785c17.436-19.218,35.203-28.044,35.951-28.41l6.874-3.368l6.874,3.368
	c0.748,0.366,18.514,9.193,35.951,28.41c23.096,25.455,35.305,57.541,35.305,92.785c0,82.301-64.61,144.686-67.362,147.301
	L255.999,428.947"/>
<path style="fill:#333333;" d="M359.927,139.973c0-11.561-9.259-20.933-20.66-20.933c-11.416,0-20.676,9.372-20.676,20.933
	c0,11.562,9.26,20.934,20.676,20.934C350.668,160.908,359.927,151.536,359.927,139.973"/>
<polyline style="fill:#BDBDBF;" points="264.366,506.698 256.52,511.67 256.52,511.671 264.366,506.698 "/>
<path style="fill:#AB142F;" d="M339.267,160.908c-11.416,0-20.676-9.372-20.676-20.934c0-11.561,9.26-20.933,20.676-20.933
	c11.402,0,20.66,9.372,20.66,20.933C359.927,151.536,350.668,160.908,339.267,160.908 M256.52,0.005V147.1l6.353,3.113
	c0.748,0.366,18.514,9.193,35.951,28.41c23.096,25.455,35.305,57.541,35.305,92.785c0,82.301-64.61,144.686-67.362,147.301
	l-10.246,9.744v83.219l7.845-4.973c144.971-91.9,196.951-134.117,199.093-135.868l5.733-4.689v-7.406
	c0-68.557-4.442-124.682-13.58-171.583c-8.994-46.164-22.363-82.382-40.87-110.723l0,0C380.773,24.408,330.484,0.121,256.52,0.005"
	/>
<path style="fill:#BD7F00;" d="M256.52,147.1v281.351l10.246-9.744c2.751-2.615,67.362-64.999,67.362-147.301
	c0-35.243-12.209-67.328-35.305-92.785c-17.436-19.218-35.203-28.044-35.951-28.41L256.52,147.1"/>
<path style="fill:#333333;" d="M152.071,139.973c0-11.478,9.2-20.772,20.506-20.772c11.32,0,20.52,9.295,20.52,20.772
	c0,11.476-9.199,20.779-20.52,20.779C161.272,160.753,152.071,151.449,152.071,139.973z"/>
<g>
</g>
<g>
</g>
<g>
</g>
<g>
</g>
<g>
</g>
<g>
</g>
<g>
</g>
<g>
</g>
<g>
</g>
<g>
</g>
<g>
</g>
<g>
</g>
<g>
</g>
<g>
</g>
<g>
</g>
</svg>
